<svg viewBox="0 0 460 140" width="460" height="140" xmlns="http://www.w3.org/2000/svg" font-family="basic-mono, monospace"><defs><linearGradient id="accent" x1="0%" x2="100%" y1="0%" y2="100%"><stop offset="0%" stop-color="#38bdf8"/><stop offset="55%" stop-color="#818cf8"/><stop offset="100%" stop-color="#2dd4bf"/></linearGradient></defs><style>text{fill:#0f172a} .dim{fill:#64748b} .accent{fill:url(#accent)}</style>
<text x="10" y="30" font-size="26" class="accent">1259</text>
<text x="10" y="50" font-size="12" class="dim">contributions, last 12 months</text>
<rect x="10.00" y="128.00" width="7.46" height="0.00" fill="url(#accent)" opacity="0.9" />
<rect x="18.46" y="128.00" width="7.46" height="0.00" fill="url(#accent)" opacity="0.9" />
<rect x="26.92" y="128.00" width="7.46" height="0.00" fill="url(#accent)" opacity="0.9" />
<rect x="35.38" y="128.00" width="7.46" height="0.00" fill="url(#accent)" opacity="0.9" />
<rect x="43.85" y="128.00" width="7.46" height="0.00" fill="url(#accent)" opacity="0.9" />
<rect x="52.31" y="127.69" width="7.46" height="0.31" fill="url(#accent)" opacity="0.9" />
<rect x="60.77" y="128.00" width="7.46" height="0.00" fill="url(#accent)" opacity="0.9" />
<rect x="69.23" y="128.00" width="7.46" height="0.00" fill="url(#accent)" opacity="0.9" />
<rect x="77.69" y="127.69" width="7.46" height="0.31" fill="url(#accent)" opacity="0.9" />
<rect x="86.15" y="128.00" width="7.46" height="0.00" fill="url(#accent)" opacity="0.9" />
<rect x="94.62" y="128.00" width="7.46" height="0.00" fill="url(#accent)" opacity="0.9" />
<rect x="103.08" y="128.00" width="7.46" height="0.00" fill="url(#accent)" opacity="0.9" />
<rect x="111.54" y="128.00" width="7.46" height="0.00" fill="url(#accent)" opacity="0.9" />
<rect x="120.00" y="128.00" width="7.46" height="0.00" fill="url(#accent)" opacity="0.9" />
<rect x="128.46" y="128.00" width="7.46" height="0.00" fill="url(#accent)" opacity="0.9" />
<rect x="136.92" y="128.00" width="7.46" height="0.00" fill="url(#accent)" opacity="0.9" />
<rect x="145.38" y="128.00" width="7.46" height="0.00" fill="url(#accent)" opacity="0.9" />
<rect x="153.85" y="128.00" width="7.46" height="0.00" fill="url(#accent)" opacity="0.9" />
<rect x="162.31" y="127.23" width="7.46" height="0.77" fill="url(#accent)" opacity="0.9" />
<rect x="170.77" y="126.76" width="7.46" height="1.24" fill="url(#accent)" opacity="0.9" />
<rect x="179.23" y="126.92" width="7.46" height="1.08" fill="url(#accent)" opacity="0.9" />
<rect x="187.69" y="126.92" width="7.46" height="1.08" fill="url(#accent)" opacity="0.9" />
<rect x="196.15" y="126.92" width="7.46" height="1.08" fill="url(#accent)" opacity="0.9" />
<rect x="204.62" y="126.92" width="7.46" height="1.08" fill="url(#accent)" opacity="0.9" />
<rect x="213.08" y="126.92" width="7.46" height="1.08" fill="url(#accent)" opacity="0.9" />
<rect x="221.54" y="126.92" width="7.46" height="1.08" fill="url(#accent)" opacity="0.9" />
<rect x="230.00" y="126.76" width="7.46" height="1.24" fill="url(#accent)" opacity="0.9" />
<rect x="238.46" y="126.92" width="7.46" height="1.08" fill="url(#accent)" opacity="0.9" />
<rect x="246.92" y="126.92" width="7.46" height="1.08" fill="url(#accent)" opacity="0.9" />
<rect x="255.38" y="126.30" width="7.46" height="1.70" fill="url(#accent)" opacity="0.9" />
<rect x="263.85" y="126.92" width="7.46" height="1.08" fill="url(#accent)" opacity="0.9" />
<rect x="272.31" y="126.92" width="7.46" height="1.08" fill="url(#accent)" opacity="0.9" />
<rect x="280.77" y="126.92" width="7.46" height="1.08" fill="url(#accent)" opacity="0.9" />
<rect x="289.23" y="126.92" width="7.46" height="1.08" fill="url(#accent)" opacity="0.9" />
<rect x="297.69" y="126.92" width="7.46" height="1.08" fill="url(#accent)" opacity="0.9" />
<rect x="306.15" y="126.92" width="7.46" height="1.08" fill="url(#accent)" opacity="0.9" />
<rect x="314.62" y="126.92" width="7.46" height="1.08" fill="url(#accent)" opacity="0.9" />
<rect x="323.08" y="75.79" width="7.46" height="52.21" fill="url(#accent)" opacity="0.9" />
<rect x="331.54" y="74.55" width="7.46" height="53.45" fill="url(#accent)" opacity="0.9" />
<rect x="340.00" y="73.00" width="7.46" height="55.00" fill="url(#accent)" opacity="0.9" />
<rect x="348.46" y="128.00" width="7.46" height="0.00" fill="url(#accent)" opacity="0.9" />
<rect x="356.92" y="128.00" width="7.46" height="0.00" fill="url(#accent)" opacity="0.9" />
<rect x="365.38" y="128.00" width="7.46" height="0.00" fill="url(#accent)" opacity="0.9" />
<rect x="373.85" y="128.00" width="7.46" height="0.00" fill="url(#accent)" opacity="0.9" />
<rect x="382.31" y="128.00" width="7.46" height="0.00" fill="url(#accent)" opacity="0.9" />
<rect x="390.77" y="128.00" width="7.46" height="0.00" fill="url(#accent)" opacity="0.9" />
<rect x="399.23" y="127.23" width="7.46" height="0.77" fill="url(#accent)" opacity="0.9" />
<rect x="407.69" y="125.68" width="7.46" height="2.32" fill="url(#accent)" opacity="0.9" />
<rect x="416.15" y="128.00" width="7.46" height="0.00" fill="url(#accent)" opacity="0.9" />
<rect x="424.62" y="128.00" width="7.46" height="0.00" fill="url(#accent)" opacity="0.9" />
<rect x="433.08" y="127.38" width="7.46" height="0.62" fill="url(#accent)" opacity="0.9" />
<rect x="441.54" y="119.17" width="7.46" height="8.83" fill="url(#accent)" opacity="0.9" />
</svg>